<svg xmlns="http://www.w3.org/2000/svg" xmlns:xlink="http://www.w3.org/1999/xlink" version="1.1" x="0px" y="0px" width="960px" height="560px" viewBox="0 0 960 560" style="enable-background:new 0 0 960 560;" xml:space="preserve">
<g xmlns="http://www.w3.org/2000/svg" id="Layer_1">
				<polygon style="fill:#4D4545;stroke: #4D4545;" points="959.983,510.314 959.983,560 0,560 0,495.822 0.539,495.822 47.354,495.822       47.354,518.596 87.174,518.596 87.174,496.568 100.088,495.822 100.088,472.015 140.984,472.015 140.984,480.172       156.051,480.431 156.051,472.719 172.195,471.974 172.195,524.806 184.033,524.806 184.033,497.893 204.481,497.893       204.481,481.662 230.31,481.104 230.31,422.329 311.026,422.329 311.026,535.157 331.754,535.157 480.53,367.468       499.364,367.468 499.364,538.263 514.431,538.263 514.431,492.096 559.083,491.537 559.858,435.454 629.586,435.589       629.586,483.401 727.521,483.401 727.521,520.665 757.655,520.665 757.655,479.261 784.561,479.261 784.561,472.015       827.609,472.015 827.609,508.244 853.438,508.244 853.438,473.05 940.612,473.05 940.612,510.314     "/>
				<polygon points="312.103,274.307 312.103,375.749 340.084,375.749 340.084,317.782 373.598,317.782 390.666,334.955       390.666,386.1 402.504,386.1 402.504,396.451 427.257,396.451 427.257,355.046 511.202,355.046 511.202,338.484 597.3,338.484       597.3,429.575 617.747,429.575 617.747,373.679 629.586,373.679 629.586,363.327 683.396,363.327 683.396,369.538       689.854,369.538 689.854,360.222 782.408,360.222 782.408,464.769 814.694,464.769 814.694,448.207 848.058,448.207       848.058,438.891 882.496,438.891 882.496,464.769 892.183,464.769 892.183,445.102 899.716,445.102 899.716,435.786       945.993,435.786 945.993,452.348 959.983,452.348 959.983,510.314 940.612,510.314 940.612,473.05 853.438,473.05       853.438,508.244 827.609,508.244 827.609,472.015 784.561,472.015 784.561,479.261 757.655,479.261 757.655,520.665       727.521,520.665 727.521,483.401 629.586,483.401 629.586,435.589 559.858,435.454 559.083,491.537 514.431,492.096       514.431,538.263 499.364,538.263 499.364,367.468 480.53,367.468 331.754,535.157 311.026,535.157 311.026,422.329       230.31,422.329 230.31,481.104 204.481,481.662 204.481,497.893 184.033,497.893 184.033,524.806 172.195,524.806       172.195,471.974 156.051,472.719 156.051,480.431 140.984,480.172 140.984,472.015 100.088,472.015 100.088,495.822       87.174,496.568 87.174,518.596 47.354,518.596 47.354,495.822 0.539,495.822 0,495.822 0,456.488 0.539,456.488 21.524,456.488       21.524,438.891 54.887,438.891 54.887,456.488 92.555,456.488 92.555,438.891 101.165,438.891 101.165,431.646 118.384,431.646       118.384,414.048 130.222,414.048 130.222,317.782 139.908,317.782 139.908,307.431 216.319,307.431 216.319,315.712       233.539,315.712 233.539,414.048 257.216,414.048 257.216,264.991 257.216,252.114 257.216,229.797 282.162,229.797       302.417,229.797 302.417,249.464 312.103,249.464     " style="&#10;    fill: black;&#10;    stroke: black;&#10;"/>
				<polygon style="fill:#332424;stroke: #332424;" points="959.983,301.22 959.983,452.348 945.993,452.348 945.993,435.786 899.716,435.786       899.716,445.102 892.183,445.102 892.183,464.769 882.496,464.769 882.496,438.891 848.058,438.891 848.058,448.207       814.694,448.207 814.694,464.769 782.408,464.769 782.408,360.222 689.854,360.222 689.854,369.538 683.396,369.538       683.396,363.327 629.586,363.327 629.586,373.679 617.747,373.679 617.747,429.575 597.3,429.575 597.3,338.484       511.202,338.484 511.202,355.046 427.257,355.046 427.257,396.451 402.504,396.451 402.504,386.1 390.666,386.1       390.666,334.955 373.598,317.782 340.084,317.782 340.084,375.749 312.103,375.749 312.103,274.307 325.017,274.307       325.017,272.237 333.627,272.237 333.627,277.412 349.77,277.412 349.77,270.167 358.38,270.167 358.38,259.815       379.904,259.815 379.904,267.061 386.361,267.061 386.361,264.039 403.581,264.287 403.581,270.167 411.114,270.167       411.114,264.991 420.8,264.991 420.8,261.885 433.715,261.885 433.715,278.447 440.172,278.447 440.172,288.799       443.401,288.799 443.401,285.693 457.392,285.693 457.392,282.588 496.136,282.588 496.136,279.482 519.812,279.482       519.812,274.307 525.193,274.307 525.193,270.167 540.26,270.167 540.26,273.272 553.175,273.272 553.175,278.447       569.317,278.447 569.317,286.729 597.3,286.729 597.3,282.588 605.909,282.588 605.909,291.904 636.043,291.904       636.043,288.799 642.5,288.799 642.5,284.658 668.33,284.658 668.33,292.939 676.939,292.939 676.939,288.799 688.777,288.799       688.777,296.044 699.54,296.044 699.54,289.834 718.912,289.834 718.912,299.149 727.521,299.149 727.521,289.834       757.655,289.834 757.655,285.693 765.188,285.693 765.188,297.079 770.57,297.079 770.57,288.799 785.637,288.799       785.637,299.149 797.476,299.149 797.476,289.834 806.085,289.834 806.085,303.29 819,303.29 819,292.939 829.762,292.939       829.762,303.29 837.295,303.29 837.295,291.904 848.058,291.904 848.058,285.693 855.591,285.693 855.591,292.939       866.354,292.939 866.354,286.729 876.039,286.729 876.039,301.22 882.496,301.22 882.496,289.834 893.259,289.834       893.259,286.729 901.868,286.729 901.868,292.939 918.012,292.939 918.012,284.658 927.697,284.658 927.697,289.834       935.23,289.834 935.23,301.22     "/>
				<polygon style="fill:#171A1A;stroke: #171A1A;" points="959.983,0 959.983,301.22 935.23,301.22 935.23,289.834 927.697,289.834       927.697,284.658 918.012,284.658 918.012,292.939 901.868,292.939 901.868,286.729 893.259,286.729 893.259,289.834       882.496,289.834 882.496,301.22 876.039,301.22 876.039,286.729 866.354,286.729 866.354,292.939 855.591,292.939       855.591,285.693 848.058,285.693 848.058,291.904 837.295,291.904 837.295,303.29 829.762,303.29 829.762,292.939 819,292.939       819,303.29 806.085,303.29 806.085,289.834 797.476,289.834 797.476,299.149 785.637,299.149 785.637,288.799 770.57,288.799       770.57,297.079 765.188,297.079 765.188,285.693 757.655,285.693 757.655,289.834 727.521,289.834 727.521,299.149       718.912,299.149 718.912,289.834 699.54,289.834 699.54,296.044 688.777,296.044 688.777,288.799 676.939,288.799       676.939,292.939 668.33,292.939 668.33,284.658 642.5,284.658 642.5,288.799 636.043,288.799 636.043,291.904 605.909,291.904       605.909,282.588 597.3,282.588 597.3,286.729 569.317,286.729 569.317,278.447 553.175,278.447 553.175,273.272 540.26,273.272       540.26,270.167 525.193,270.167 525.193,274.307 519.812,274.307 519.812,279.482 496.136,279.482 496.136,282.588       457.392,282.588 457.392,285.693 443.401,285.693 443.401,288.799 440.172,288.799 440.172,278.447 433.715,278.447       433.715,261.885 420.8,261.885 420.8,264.991 411.114,264.991 411.114,270.167 403.581,270.167 403.581,264.287       386.361,264.039 386.361,267.061 379.904,267.061 379.904,259.815 358.38,259.815 358.38,270.167 349.77,270.167       349.77,277.412 333.627,277.412 333.627,272.237 325.017,272.237 325.017,274.307 312.103,274.307 312.103,249.464       302.417,249.464 302.417,229.797 282.162,229.797 257.216,229.797 257.216,252.114 257.216,264.991 256.678,264.991       237.844,264.991 237.844,286.729 217.396,286.729 217.396,272.237 208.786,272.237 208.786,258.78 185.109,258.78       185.109,264.991 176.5,264.991 176.5,258.78 158.204,258.78 158.204,271.202 152.823,271.202 152.823,258.78 138.832,258.78       138.832,270.167 131.298,270.167 131.298,258.78 104.393,258.78 104.393,264.991 94.707,264.991 94.707,258.78 89.219,258.78       79.92,258.78 73.183,258.78 73.183,266.026 54.887,266.026 54.887,258.78 44.663,258.78 44.663,270.167 0.539,270.167       0,270.167 0,0     "/>
				<polygon style="fill:#332424;stroke: #332424;" points="257.216,264.991 257.216,414.048 233.539,414.048 233.539,315.712 216.319,315.712       216.319,307.431 139.908,307.431 139.908,317.782 130.222,317.782 130.222,414.048 118.384,414.048 118.384,431.646       101.165,431.646 101.165,438.891 92.555,438.891 92.555,456.488 54.887,456.488 54.887,438.891 21.524,438.891 21.524,456.488       0.539,456.488 0,456.488 0,270.167 0.539,270.167 44.663,270.167 44.663,258.78 54.887,258.78 54.887,266.026 73.183,266.026       73.183,258.78 79.92,258.78 89.219,258.78 94.707,258.78 94.707,264.991 104.393,264.991 104.393,258.78 131.298,258.78       131.298,270.167 138.832,270.167 138.832,258.78 152.823,258.78 152.823,271.202 158.204,271.202 158.204,258.78 176.5,258.78       176.5,264.991 185.109,264.991 185.109,258.78 208.786,258.78 208.786,272.237 217.396,272.237 217.396,286.729       237.844,286.729 237.844,264.991 256.678,264.991     "/>
			</g>
	</svg>