<svg xmlns="http://www.w3.org/2000/svg" xmlns:xlink="http://www.w3.org/1999/xlink" version="1.2" baseProfile="tiny" x="0px" y="0px" width="960px" height="560px" viewBox="0 0 960 560" xml:space="preserve">
<g id="Layer_1">
	<g>
		<g id="XMLID_1_">
			<g>
				<polygon fill="#102A3D" points="959.962,510.314 959.962,560 0,560 0,495.822 0.538,495.822 47.352,495.822 47.352,518.595       87.171,518.595 87.171,496.567 100.085,495.822 100.085,472.015 140.981,472.015 140.981,480.172 156.047,480.431       156.047,472.719 172.19,471.974 172.19,524.806 184.028,524.806 184.028,497.893 204.476,497.893 204.476,481.662       230.305,481.104 230.305,422.329 311.019,422.329 311.019,535.157 331.746,535.157 480.519,367.468 499.353,367.468       499.353,538.263 514.419,538.263 514.419,492.096 559.07,491.537 559.845,435.454 629.571,435.589 629.571,483.401       727.505,483.401 727.505,520.665 757.638,520.665 757.638,479.261 784.543,479.261 784.543,472.015 827.59,472.015       827.59,508.244 853.419,508.244 853.419,473.05 940.59,473.05 940.59,510.314     "/>
				<polygon fill="#2F7FB8" points="312.095,274.307 312.095,375.748 340.076,375.748 340.076,317.782 373.588,317.782       390.657,334.954 390.657,386.1 402.495,386.1 402.495,396.451 427.248,396.451 427.248,355.046 511.19,355.046 511.19,338.484       597.285,338.484 597.285,429.575 617.733,429.575 617.733,373.679 629.571,373.679 629.571,363.327 683.381,363.327       683.381,369.538 689.838,369.538 689.838,360.222 782.391,360.222 782.391,464.769 814.676,464.769 814.676,448.207       848.038,448.207 848.038,438.891 882.476,438.891 882.476,464.769 892.162,464.769 892.162,445.102 899.695,445.102       899.695,435.785 945.972,435.785 945.972,452.348 959.962,452.348 959.962,510.314 940.59,510.314 940.59,473.05       853.419,473.05 853.419,508.244 827.59,508.244 827.59,472.015 784.543,472.015 784.543,479.261 757.638,479.261       757.638,520.665 727.505,520.665 727.505,483.401 629.571,483.401 629.571,435.589 559.845,435.454 559.07,491.537       514.419,492.096 514.419,538.263 499.353,538.263 499.353,367.468 480.519,367.468 331.746,535.157 311.019,535.157       311.019,422.329 230.305,422.329 230.305,481.104 204.476,481.662 204.476,497.893 184.028,497.893 184.028,524.806       172.19,524.806 172.19,471.974 156.047,472.719 156.047,480.431 140.981,480.172 140.981,472.015 100.085,472.015       100.085,495.822 87.171,496.567 87.171,518.595 47.352,518.595 47.352,495.822 0.538,495.822 0,495.822 0,456.488       0.538,456.488 21.523,456.488 21.523,438.891 54.886,438.891 54.886,456.488 92.552,456.488 92.552,438.891 101.162,438.891       101.162,431.645 118.381,431.645 118.381,414.048 130.219,414.048 130.219,317.782 139.905,317.782 139.905,307.431       216.314,307.431 216.314,315.712 233.533,315.712 233.533,414.048 257.209,414.048 257.209,264.991 257.209,252.114       257.209,229.796 282.155,229.796 302.409,229.796 302.409,249.464 312.095,249.464     "/>
				<polygon fill="#20557B" points="959.962,301.22 959.962,452.348 945.972,452.348 945.972,435.785 899.695,435.785       899.695,445.102 892.162,445.102 892.162,464.769 882.476,464.769 882.476,438.891 848.038,438.891 848.038,448.207       814.676,448.207 814.676,464.769 782.391,464.769 782.391,360.222 689.838,360.222 689.838,369.538 683.381,369.538       683.381,363.327 629.571,363.327 629.571,373.679 617.733,373.679 617.733,429.575 597.285,429.575 597.285,338.484       511.19,338.484 511.19,355.046 427.248,355.046 427.248,396.451 402.495,396.451 402.495,386.1 390.657,386.1 390.657,334.954       373.588,317.782 340.076,317.782 340.076,375.748 312.095,375.748 312.095,274.307 325.009,274.307 325.009,272.236       333.619,272.236 333.619,277.412 349.762,277.412 349.762,270.166 358.371,270.166 358.371,259.815 379.895,259.815       379.895,267.061 386.352,267.061 386.352,264.039 403.571,264.287 403.571,270.166 411.104,270.166 411.104,264.991       420.791,264.991 420.791,261.885 433.705,261.885 433.705,278.447 440.162,278.447 440.162,288.799 443.39,288.799       443.39,285.693 457.381,285.693 457.381,282.588 496.124,282.588 496.124,279.482 519.8,279.482 519.8,274.307 525.181,274.307       525.181,270.166 540.247,270.166 540.247,273.271 553.162,273.271 553.162,278.447 569.305,278.447 569.305,286.729       597.285,286.729 597.285,282.588 605.896,282.588 605.896,291.903 636.028,291.903 636.028,288.799 642.485,288.799       642.485,284.658 668.314,284.658 668.314,292.938 676.924,292.938 676.924,288.799 688.762,288.799 688.762,296.044       699.523,296.044 699.523,289.834 718.896,289.834 718.896,299.149 727.505,299.149 727.505,289.834 757.638,289.834       757.638,285.693 765.171,285.693 765.171,297.079 770.552,297.079 770.552,288.799 785.619,288.799 785.619,299.149       797.457,299.149 797.457,289.834 806.066,289.834 806.066,303.29 818.98,303.29 818.98,292.938 829.743,292.938 829.743,303.29       837.276,303.29 837.276,291.903 848.038,291.903 848.038,285.693 855.571,285.693 855.571,292.938 866.333,292.938       866.333,286.729 876.019,286.729 876.019,301.22 882.476,301.22 882.476,289.834 893.238,289.834 893.238,286.729       901.848,286.729 901.848,292.938 917.99,292.938 917.99,284.658 927.676,284.658 927.676,289.834 935.209,289.834       935.209,301.22     "/>
				<polygon points="959.962,0 959.962,301.22 935.209,301.22 935.209,289.834 927.676,289.834 927.676,284.658 917.99,284.658       917.99,292.938 901.848,292.938 901.848,286.729 893.238,286.729 893.238,289.834 882.476,289.834 882.476,301.22       876.019,301.22 876.019,286.729 866.333,286.729 866.333,292.938 855.571,292.938 855.571,285.693 848.038,285.693       848.038,291.903 837.276,291.903 837.276,303.29 829.743,303.29 829.743,292.938 818.98,292.938 818.98,303.29 806.066,303.29       806.066,289.834 797.457,289.834 797.457,299.149 785.619,299.149 785.619,288.799 770.552,288.799 770.552,297.079       765.171,297.079 765.171,285.693 757.638,285.693 757.638,289.834 727.505,289.834 727.505,299.149 718.896,299.149       718.896,289.834 699.523,289.834 699.523,296.044 688.762,296.044 688.762,288.799 676.924,288.799 676.924,292.938       668.314,292.938 668.314,284.658 642.485,284.658 642.485,288.799 636.028,288.799 636.028,291.903 605.896,291.903       605.896,282.588 597.285,282.588 597.285,286.729 569.305,286.729 569.305,278.447 553.162,278.447 553.162,273.271       540.247,273.271 540.247,270.166 525.181,270.166 525.181,274.307 519.8,274.307 519.8,279.482 496.124,279.482       496.124,282.588 457.381,282.588 457.381,285.693 443.39,285.693 443.39,288.799 440.162,288.799 440.162,278.447       433.705,278.447 433.705,261.885 420.791,261.885 420.791,264.991 411.104,264.991 411.104,270.166 403.571,270.166       403.571,264.287 386.352,264.039 386.352,267.061 379.895,267.061 379.895,259.815 358.371,259.815 358.371,270.166       349.762,270.166 349.762,277.412 333.619,277.412 333.619,272.236 325.009,272.236 325.009,274.307 312.095,274.307       312.095,249.464 302.409,249.464 302.409,229.796 282.155,229.796 257.209,229.796 257.209,252.114 257.209,264.991       256.671,264.991 237.838,264.991 237.838,286.729 217.39,286.729 217.39,272.236 208.781,272.236 208.781,258.78       185.104,258.78 185.104,264.991 176.495,264.991 176.495,258.78 158.2,258.78 158.2,271.201 152.819,271.201 152.819,258.78       138.829,258.78 138.829,270.166 131.295,270.166 131.295,258.78 104.39,258.78 104.39,264.991 94.705,264.991 94.705,258.78       89.216,258.78 79.918,258.78 73.181,258.78 73.181,266.026 54.886,266.026 54.886,258.78 48.428,258.78 48.428,270.166       0.538,270.166 0,270.166 0,0     "/>
				<polygon fill="#20557B" points="257.209,264.991 257.209,414.048 233.533,414.048 233.533,315.712 216.314,315.712       216.314,307.431 139.905,307.431 139.905,317.782 130.219,317.782 130.219,414.048 118.381,414.048 118.381,431.645       101.162,431.645 101.162,438.891 92.552,438.891 92.552,456.488 54.886,456.488 54.886,438.891 21.523,438.891 21.523,456.488       0.538,456.488 0,456.488 0,270.166 0.538,270.166 48.428,270.166 48.428,258.78 54.886,258.78 54.886,266.026 73.181,266.026       73.181,258.78 79.918,258.78 89.216,258.78 94.705,258.78 94.705,264.991 104.39,264.991 104.39,258.78 131.295,258.78       131.295,270.166 138.829,270.166 138.829,258.78 152.819,258.78 152.819,271.201 158.2,271.201 158.2,258.78 176.495,258.78       176.495,264.991 185.104,264.991 185.104,258.78 208.781,258.78 208.781,272.236 217.39,272.236 217.39,286.729       237.838,286.729 237.838,264.991 256.671,264.991     "/>
			</g>
			<g>
				<polyline fill="none" stroke="#000000" stroke-width="3" stroke-miterlimit="10" points="0.538,456.488 21.523,456.488       21.523,438.891 54.886,438.891 54.886,456.488 92.552,456.488 92.552,438.891 101.162,438.891 101.162,431.645 118.381,431.645       118.381,414.048 130.219,414.048 130.219,317.782 139.905,317.782 139.905,307.431 216.314,307.431 216.314,315.712       233.533,315.712 233.533,414.048 257.209,414.048 257.209,264.991 257.209,252.114 257.209,229.796 282.155,229.796       302.409,229.796 302.409,249.464 312.095,249.464 312.095,274.307 312.095,375.748 340.076,375.748 340.076,317.782       373.588,317.782 390.657,334.954 390.657,386.1 402.495,386.1 402.495,396.451 427.248,396.451 427.248,355.046 511.19,355.046       511.19,338.484 597.285,338.484 597.285,429.575 617.733,429.575 617.733,373.679 629.571,373.679 629.571,363.327       683.381,363.327 683.381,369.538 689.838,369.538 689.838,360.222 782.391,360.222 782.391,464.769 814.676,464.769       814.676,448.207 848.038,448.207 848.038,438.891 882.476,438.891 882.476,464.769 892.162,464.769 892.162,445.102       899.695,445.102 899.695,435.785 945.972,435.785 945.972,452.348 959.962,452.348 960.5,452.348     "/>
				<polyline fill="none" stroke="#000000" stroke-width="3" stroke-miterlimit="10" points="0.538,495.822 47.352,495.822       47.352,518.595 87.171,518.595 87.171,496.567 100.085,495.822 100.085,472.015 140.981,472.015 140.981,480.172       156.047,480.431 156.047,472.719 172.19,471.974 172.19,524.806 184.028,524.806 184.028,497.893 204.476,497.893       204.476,481.662 230.305,481.104 230.305,422.329 311.019,422.329 311.019,535.157 331.746,535.157 480.519,367.468       499.353,367.468 499.353,538.263 514.419,538.263 514.419,492.096 559.07,491.537 559.845,435.454 629.571,435.589       629.571,483.401 727.505,483.401 727.505,520.665 757.638,520.665 757.638,479.261 784.543,479.261 784.543,472.015       827.59,472.015 827.59,508.244 853.419,508.244 853.419,473.05 940.59,473.05 940.59,510.314 959.962,510.314 960.5,510.314           "/>
				<polyline fill="none" stroke="#000000" stroke-width="3" stroke-miterlimit="10" points="256.671,264.991 237.838,264.991       237.838,286.729 217.39,286.729 217.39,272.236 208.781,272.236 208.781,258.78 185.104,258.78 185.104,264.991       176.495,264.991 176.495,258.78 158.2,258.78 158.2,271.201 152.819,271.201 152.819,258.78 138.829,258.78 138.829,270.166       131.295,270.166 131.295,258.78 104.39,258.78 104.39,264.991 94.705,264.991 94.705,258.78 89.216,258.78 79.918,258.78       73.181,258.78 73.181,266.026 54.886,266.026 54.886,258.78 48.428,258.78 48.428,270.166 0.538,270.166     "/>
				<polyline fill="none" stroke="#000000" stroke-width="3" stroke-miterlimit="10" points="311.557,274.307 312.095,274.307       325.009,274.307 325.009,272.236 333.619,272.236 333.619,277.412 349.762,277.412 349.762,270.166 358.371,270.166       358.371,259.815 379.895,259.815 379.895,267.061 386.352,267.061 386.352,264.039 403.571,264.287 403.571,270.166       411.104,270.166 411.104,264.991 420.791,264.991 420.791,261.885 433.705,261.885 433.705,278.447 440.162,278.447       440.162,288.799 443.39,288.799 443.39,285.693 457.381,285.693 457.381,282.588 496.124,282.588 496.124,279.482       519.8,279.482 519.8,274.307 525.181,274.307 525.181,270.166 540.247,270.166 540.247,273.271 553.162,273.271       553.162,278.447 569.305,278.447 569.305,286.729 597.285,286.729 597.285,282.588 605.896,282.588 605.896,291.903       636.028,291.903 636.028,288.799 642.485,288.799 642.485,284.658 668.314,284.658 668.314,292.938 676.924,292.938       676.924,288.799 688.762,288.799 688.762,296.044 699.523,296.044 699.523,289.834 718.896,289.834 718.896,299.149       727.505,299.149 727.505,289.834 757.638,289.834 757.638,285.693 765.171,285.693 765.171,297.079 770.552,297.079       770.552,288.799 785.619,288.799 785.619,299.149 797.457,299.149 797.457,289.834 806.066,289.834 806.066,303.29       818.98,303.29 818.98,292.938 829.743,292.938 829.743,303.29 837.276,303.29 837.276,291.903 848.038,291.903 848.038,285.693       855.571,285.693 855.571,292.938 866.333,292.938 866.333,286.729 876.019,286.729 876.019,301.22 882.476,301.22       882.476,289.834 893.238,289.834 893.238,286.729 901.848,286.729 901.848,292.938 917.99,292.938 917.99,284.658       927.676,284.658 927.676,289.834 935.209,289.834 935.209,301.22 959.962,301.22 960.5,301.22     "/>
			</g>
		</g>
	</g>
</g>
<g id="Layer_2" display="none">
	<g id="SivqdM.tif" display="inline">
		<g>
			<path fill="#F2F2F2" d="M428.263,324.27c0-29.506,0-59.013,0-88.539c76.236,0,42.562,0,92.152,0c0,29.499,0,59.018,0,88.539     C489.72,324.27,458.996,324.27,428.263,324.27z M503.976,286.789c2.314-1.428,4.576-2.824,6.891-4.256     c-1.412-1.896-2.729-3.746-4.756-4.914c-0.025-0.016-0.049-0.031-0.074-0.045c-3.523-1.82-7.242-2.146-11.082-1.412     c-3.027,0.582-5.582,2.057-7.408,4.531c-1.959,2.656-2.242,5.729-1.65,8.906c0.305,1.635,0.875,3.184,1.955,4.459     c2.439,2.879,5.74,4.42,9.141,5.824c1.959,0.811,3.9,1.701,5.748,2.74c1.354,0.764,1.922,2.133,1.693,3.703     c-0.244,1.67-1.371,2.645-2.885,3.129c-4.074,1.301-8.355-0.221-10.777-3.764c-0.189-0.279-0.389-0.551-0.611-0.867     c-2.416,1.348-4.762,2.656-7.217,4.025c0.426,0.592,0.803,1.117,1.18,1.641c1.182,1.65,2.541,3.078,4.32,4.146     c4.844,2.912,10.02,3.311,15.412,2.211c2.91-0.594,5.5-1.953,7.258-4.332c3.762-5.094,3.359-14.031-5.229-18.029     c-2.445-1.139-4.953-2.146-7.395-3.297c-1.105-0.521-2.262-1.086-3.143-1.904c-1.803-1.676-1.178-4.811,1.059-5.678     c1.918-0.744,4.922-0.443,6.439,1.594C503.202,285.684,503.544,286.182,503.976,286.789z M459.551,305.549     c-2.432,1.42-4.779,2.791-7.143,4.17c0.256,0.398,0.49,0.717,0.678,1.061c1.404,2.549,3.471,4.354,6.154,5.432     c3.987,1.602,8.065,1.631,12.077,0.238c3.381-1.176,5.693-3.555,6.551-7.111c0.328-1.359,0.555-2.781,0.561-4.176     c0.049-9.309,0.029-18.621,0.025-27.93c0-0.279-0.031-0.557-0.053-0.924c-0.381,0-0.689,0-0.998,0c-2.221,0-4.439,0-6.66,0     c-1.109,0-1.115,0.002-1.115,1.143c-0.002,8.764,0,17.525-0.004,26.289c0,0.805-0.012,1.615-0.082,2.418     c-0.189,2.203-1.307,3.311-3.465,3.613c-2.307,0.326-4.021-0.611-5.357-2.396C460.309,306.826,459.977,306.221,459.551,305.549z"/>
		</g>
	</g>
	<g id="zFnlX8.tif" display="inline">
		<g>
			<g>
				<path fill="#F2F2F2" d="M600.007,340c-0.121,0-0.24,0-0.361,0c-0.162-0.066-0.322-0.15-0.492-0.197      c-7.096-1.973-14.193-3.943-21.291-5.911c-4.078-1.131-8.156-2.259-12.232-3.392c-0.252-0.07-0.52-0.073-0.555-0.484      c-0.381-4.461-0.789-8.92-1.186-13.379c-0.377-4.241-0.75-8.482-1.127-12.723c-0.385-4.32-0.773-8.64-1.158-12.959      c-0.336-3.764-0.668-7.526-1.004-11.289c-0.385-4.3-0.77-8.6-1.154-12.9c-0.342-3.822-0.684-7.645-1.025-11.467      c-0.336-3.743-0.67-7.485-1.002-11.228c-0.014-0.149,0.014-0.302,0.021-0.432c28.336,0,56.619,0,84.936,0      c-0.021,0.312-0.033,0.569-0.057,0.826c-0.143,1.612-0.291,3.225-0.434,4.837c-0.336,3.763-0.668,7.526-1.004,11.288      c-0.383,4.26-0.77,8.52-1.15,12.78c-0.379,4.24-0.748,8.481-1.127,12.722c-0.42,4.698-0.85,9.396-1.268,14.094      c-0.42,4.698-0.828,9.397-1.248,14.096c-0.459,5.156-0.936,10.312-1.379,15.468c-0.039,0.457-0.186,0.649-0.617,0.768      c-9.273,2.558-18.547,5.125-27.816,7.697C604.183,338.796,602.097,339.404,600.007,340z M624.583,282.877      c-12.941,0-25.834,0-38.787,0c-0.324-3.656-0.645-7.262-0.969-10.932c13.646,0,27.176,0,40.732,0      c0.318-3.562,0.631-7.072,0.947-10.594c-17.801,0-35.512,0-53.273,0c0.02,0.361,0.029,0.678,0.059,0.993      c0.141,1.573,0.291,3.145,0.43,4.718c0.379,4.261,0.75,8.522,1.131,12.783c0.381,4.26,0.77,8.521,1.148,12.782      c0.076,0.867,0.059,0.869,0.918,0.869c11.721,0.004,23.441,0.008,35.16,0.012c0.273,0,0.547,0,0.84,0      c0.008,0.156,0.021,0.233,0.014,0.309c-0.389,4.359-0.789,8.719-1.158,13.082c-0.037,0.416-0.271,0.48-0.562,0.559      c-3.645,0.979-7.287,1.963-10.934,2.928c-0.273,0.072-0.598,0.078-0.871,0.006c-3.627-0.962-7.25-1.949-10.877-2.91      c-0.414-0.108-0.582-0.295-0.613-0.715c-0.117-1.555-0.262-3.107-0.398-4.661c-0.096-1.071-0.197-2.142-0.297-3.216      c-3.572,0-7.094,0-10.662,0c0.18,2.027,0.354,3.997,0.531,5.967c0.301,3.385,0.611,6.77,0.9,10.154      c0.035,0.403,0.178,0.563,0.576,0.674c6.967,1.92,13.928,3.863,20.895,5.785c0.27,0.074,0.596,0.052,0.869-0.021      c2.543-0.688,5.082-1.395,7.621-2.099c4.387-1.216,8.773-2.433,13.16-3.647c0.312-0.088,0.576-0.146,0.613-0.588      c0.264-3.247,0.557-6.492,0.846-9.738c0.34-3.803,0.686-7.605,1.025-11.408C623.925,290.305,624.249,286.641,624.583,282.877z"/>
				<path fill-rule="evenodd" fill="#F2F2F2" d="M618.966,220c-0.01,0.459-0.027,0.918-0.029,1.377c-0.002,4.68,0,9.359,0,14.039      c0,0.235,0,0.47,0,0.739c-1.814,0-3.562,0-5.359,0c0-2.591,0-5.163,0-7.735c-0.051-0.024-0.104-0.048-0.154-0.072      c-1.201,1.854-2.402,3.708-3.65,5.633c-1.242-1.916-2.443-3.77-3.748-5.784c0,2.76,0,5.34,0,7.956c-1.783,0-3.494,0-5.299,0      c0-5.378,0-10.766,0-16.154c1.881,0,3.762,0,5.641,0c1.133,1.869,2.266,3.738,3.441,5.677c0.156-0.244,0.275-0.422,0.387-0.605      c0.768-1.259,1.537-2.516,2.297-3.779c0.254-0.422,0.479-0.862,0.715-1.293C615.126,220,617.046,220,618.966,220z"/>
				<path fill-rule="evenodd" fill="#F2F2F2" d="M581.046,220c0,5.373,0,10.745,0,16.154c-1.799,0-3.549,0-5.367,0      c0-1.755,0-3.521,0-5.333c-1.672,0-3.277,0-4.957,0c0,1.76,0,3.526,0,5.33c-1.82,0-3.57,0-5.367,0      c-0.018-0.142-0.053-0.292-0.053-0.442c-0.004-5.137-0.002-10.274-0.002-15.412c0-0.099,0.018-0.198,0.027-0.297      c1.799,0,3.6,0,5.398,0c0,1.765,0,3.53,0,5.304c1.676,0,3.281,0,4.92,0c0-1.796,0-3.55,0-5.304      C577.446,220,579.247,220,581.046,220z"/>
				<path fill-rule="evenodd" fill="#F2F2F2" d="M598.327,220c0,1.771,0,3.543,0,5.367c-1.594,0-3.127,0-4.734,0      c0,3.614,0,7.178,0,10.782c-1.84,0-3.604,0-5.42,0c0-3.577,0-7.127,0-10.756c-1.594,0-3.139,0-4.727,0c0-1.851,0-3.622,0-5.392      C588.407,220,593.366,220,598.327,220z"/>
				<path fill-rule="evenodd" fill="#F2F2F2" d="M627.007,220c0,3.574,0,7.147,0,10.803c2.551,0,5.051,0,7.592,0      c0,1.829,0,3.575,0,5.354c-4.318,0-8.605,0-12.992,0c0-5.388,0-10.773,0-16.157C623.407,220,625.206,220,627.007,220z"/>
			</g>
		</g>
	</g>
	<g id="PHP90U.tif" display="inline">
		<g>
			<g>
				<path fill-rule="evenodd" fill="#F2F2F2" d="M167.095,338.59c-0.429-0.074-0.859-0.146-1.333-0.229      c0.33-1.389,0.644-2.77,1.001-4.139c0.044-0.166,0.311-0.35,0.502-0.389c0.525-0.109,1.066-0.205,1.599-0.199      c0.604,0.008,0.915-0.273,1.189-0.77c1.22-2.197,1.71-4.611,2.208-7.037c0.51-2.486,1.117-4.953,1.676-7.43      c0.115-0.508,0.393-0.678,0.928-0.662c1.49,0.041,2.983,0.014,4.593,0.014c-0.162,0.744-0.303,1.422-0.459,2.098      c-1.031,4.453-2.06,8.906-3.106,13.355c-0.139,0.594-0.352,1.17-0.564,1.742c-0.756,2.039-2.175,3.262-4.372,3.518      c-0.115,0.012-0.223,0.082-0.334,0.127C169.447,338.59,168.271,338.59,167.095,338.59z"/>
				<path fill-rule="evenodd" fill="#F2F2F2" d="M190.878,233.094c-0.225,1.219-0.475,2.434-0.671,3.656      c-0.61,3.804-0.834,7.622-0.548,11.476c0.899,12.101,6.769,21.391,16.191,28.648c4.357,3.355,9,6.265,14.213,8.132      c4.078,1.461,8.293,2.184,12.628,2.348c6.52,0.246,12.747-0.893,18.636-3.723c3.044-1.463,5.784-3.382,8.207-5.744      c0.122-0.12,0.245-0.239,0.373-0.353c0.031-0.027,0.085-0.032,0.282,0.048c-0.949,1.521-1.797,3.116-2.865,4.549      c-5.896,7.916-13.707,12.873-23.469,14.365c-14.826,2.264-27.732-1.844-38.49-12.365c-5.824-5.699-9.88-12.474-11.977-20.376      c-0.972-3.662-1.417-7.398-1.235-11.182c0.353-7.313,3.02-13.683,7.993-19.071c0.173-0.188,0.378-0.346,0.569-0.518      C190.77,233.021,190.824,233.058,190.878,233.094z"/>
				<path fill-rule="evenodd" fill="#F2F2F2" d="M211.718,225.709c-0.587,3.205-0.947,6.209-0.848,9.253      c0.275,8.497,3.626,15.538,10.121,21.016c4.385,3.699,9.274,6.579,14.863,8.03c8.422,2.187,16.24,0.872,23.263-4.433      c0.546-0.412,1.08-0.852,1.562-1.336c0.481-0.481,0.892-1.035,1.333-1.558c0.091,0.069,0.183,0.14,0.274,0.208      c-0.091,0.223-0.171,0.449-0.274,0.666c-2.942,6.211-7.812,10.225-14.226,12.475c-3.709,1.301-7.542,1.916-11.458,1.75      c-7.831-0.332-14.642-3.171-20.382-8.541c-4.129-3.863-7.41-8.293-8.988-13.794c-1.66-5.789-1.805-11.568,0.583-17.234      C208.525,229.871,209.938,227.796,211.718,225.709z"/>
				<path fill-rule="evenodd" fill="#F2F2F2" d="M201.472,326.014c0.896,0.053,1.691,0.1,2.598,0.152      c-0.382,1.576-0.747,3.084-1.124,4.635c-1.343,0-2.638,0.01-3.934-0.002c-3.767-0.031-7.539,0.029-11.3-0.137      c-3.494-0.156-5.958-2.613-6.333-6.09c-0.482-4.459,0.45-8.607,2.915-12.381c2.664-4.078,6.544-5.738,11.283-5.514      c3.141,0.146,5.809,1.332,7.525,4.125c1.368,2.227,1.649,4.65,0.945,7.135c-0.691,2.445-1.524,4.848-2.297,7.268      C201.678,325.438,201.594,325.664,201.472,326.014z M196.263,325.949c0.807-3.176,1.674-6.334,2.394-9.525      c0.396-1.75-0.557-3.496-2.071-4.242c-2.212-1.092-6.365-0.736-7.75,2.842c-0.835,2.158-1.392,4.369-1.679,6.662      c-0.315,2.52,0.896,4.117,3.434,4.246C192.42,326.025,194.257,325.949,196.263,325.949z"/>
				<path fill-rule="evenodd" fill="#F2F2F2" d="M241.486,326.531c-0.333,1.545-0.64,2.969-0.969,4.498      c-1.195,0-2.364,0.018-3.533-0.002c-2.663-0.045-5.334,0.008-7.985-0.197c-2.875-0.221-4.568-2.367-4.319-5.244      c0.238-2.738,0.825-5.404,1.771-7.996c1.082-2.963,3.339-4.547,6.208-5.43c2.323-0.713,4.667-0.832,6.996-0.014      c2.595,0.91,3.914,2.844,3.672,5.58c-0.154,1.75-0.519,3.479-0.769,5.219c-0.076,0.531-0.455,0.414-0.776,0.414      c-3.452,0.006-6.904-0.01-10.356,0.02c-0.413,0.004-1.01-0.344-1.226,0.406c-0.262,0.91-0.062,1.789,0.631,2.145      c0.42,0.217,0.927,0.34,1.4,0.357c2.762,0.105,5.525,0.168,8.288,0.244C240.806,326.539,241.092,326.531,241.486,326.531z       M237.831,319.227c0.319-1.316-0.071-2.254-1.124-2.656c-1.035-0.396-2.112-0.461-3.162-0.096      c-1.291,0.451-1.996,1.455-2.447,2.752C233.391,319.227,235.589,319.227,237.831,319.227z"/>
				<path fill-rule="evenodd" fill="#F2F2F2" d="M221.059,330.695c-3.692,0-7.294,0.123-10.883-0.041      c-2.614-0.119-4.161-1.9-4.08-4.539c0.06-1.943,0.38-3.893,0.717-5.816c0.451-2.576,1.045-5.127,1.542-7.695      c0.103-0.531,0.335-0.656,0.837-0.645c1.366,0.033,2.732,0.012,4.269,0.012c-0.255,1.514-0.482,2.928-0.734,4.336      c-0.414,2.307-0.888,4.605-1.246,6.922c-0.136,0.877-0.022,1.793-0.022,2.812c1.226,0,2.243,0.008,3.261-0.004      c0.729-0.01,1.669,0.217,2.128-0.148c0.455-0.363,0.448-1.33,0.605-2.039c0.816-3.678,1.619-7.357,2.429-11.037      c0.057-0.258,0.132-0.512,0.205-0.789c1.64,0,3.25,0,4.905,0C223.676,318.273,222.365,324.494,221.059,330.695z"/>
				<path fill-rule="evenodd" fill="#F2F2F2" d="M258.773,243.083c-2.205,3.335-5.087,5.388-8.805,6.039      c-5.342,0.938-10.478,0.188-15.046-2.842c-5.007-3.321-8.11-8.059-9.065-13.996c-0.644-4.002,0.662-7.612,3.139-10.874      c-0.073,1.427-0.206,2.774-0.201,4.121c0.016,4.54,1.551,8.535,4.583,11.901c3.514,3.901,7.788,6.585,12.989,7.622      c4.026,0.802,7.867,0.077,11.567-1.586C258.154,243.37,258.371,243.268,258.773,243.083z"/>
				<path fill-rule="evenodd" fill="#F2F2F2" d="M259.245,330.705c0.271-1.039,0.593-1.988,0.755-2.965      c0.257-1.551-0.1-3.062-0.515-4.553c-0.427-1.531-0.862-3.059-1.286-4.588c-0.062-0.225-0.078-0.463-0.129-0.785      c1.792,0,3.5-0.012,5.207,0.021c0.154,0.002,0.375,0.268,0.441,0.453c0.274,0.771,0.501,1.561,0.795,2.5      c0.698-1.002,1.31-1.873,1.915-2.75c1.917-2.781,3.84-5.557,5.735-8.352c0.283-0.418,0.584-0.568,1.078-0.562      c1.759,0.027,3.519,0.01,5.421,0.01c-0.183,0.332-0.283,0.572-0.432,0.775c-2.21,2.988-4.391,6-6.651,8.951      c-2.385,3.113-4.726,6.244-6.198,9.926c-0.063,0.158-0.133,0.314-0.194,0.475c-0.545,1.443-0.545,1.443-2.128,1.443      C261.772,330.705,260.484,330.705,259.245,330.705z"/>
				<path fill-rule="evenodd" fill="#F2F2F2" d="M247.68,311.855c2.704,0,5.371-0.012,8.037,0.004      c1.419,0.01,2.841,0.012,4.254,0.117c1.736,0.131,2.503,0.82,2.912,2.488c0.156,0.639,0.237,1.295,0.368,2.033      c-3.837,0-7.615,0-11.453,0c-0.463,2.16-0.912,4.258-1.362,6.355c-0.523,2.438-1.04,4.879-1.587,7.311      c-0.05,0.223-0.301,0.566-0.468,0.57c-1.539,0.045-3.081,0.025-4.724,0.025C245.003,324.432,246.334,318.176,247.68,311.855z"/>
				<path fill-rule="evenodd" fill="#F2F2F2" d="M179.762,316.225c-1.822,0-3.577,0-5.42,0c0.306-1.344,0.592-2.646,0.911-3.941      c0.034-0.139,0.254-0.33,0.391-0.332c1.633-0.023,3.267-0.016,5.025-0.016C180.355,313.426,180.06,314.818,179.762,316.225z"/>
			</g>
		</g>
	</g>
	<g display="inline">
		<path fill="#F2F2F2" d="M375.597,332.082l4.452-7.602c0,0-10.122,4.147-27.069,4.147c-16.947,0-26.922-4.053-26.922-4.053    l4.987,8.295l1.764,26.093c0,2.782,9.219,5.04,20.58,5.04c11.382,0,20.601-2.258,20.601-5.04L375.597,332.082L375.597,332.082z     M379.901,282.68c-5.386,0.315-8.085,6.332-10.794,12.652c-0.997,2.311-4.41,12.181-6.646,10.963    c-2.236-1.219,2.898-9.324,4.337-14.144c-1.659,1.218-7.749,5.953-9.313,1.512c-2.521,2.174-7.917,3.329-7.309-2.31    c-1.344,2.383-4.357,5.712-7.979,4.305c-4.725-1.785,2.762-16.926,4.62-16.17c1.869,0.777-0.367,4.2-0.945,5.564    c-1.302,2.94-2.793,6.646-1.785,7.402c1.68,1.303,6.332-4.914,6.437-5.039c0.872-1.155,3.36-8.674,5.355-7.812    c1.995,0.871-4.987,10.794-2.383,12.769c0.525,0.398,2.678-0.253,3.99-1.659c0.84-0.924,0.546-2.94,3.36-9.682    c2.834-6.74,5.355-15.12,7.287-14.489c1.932,0.63,0.336,4.935-0.356,6.552c-3.255,7.518-8.894,19.949-6.237,19.005    c2.625-0.924,4.021-0.987,6.615-4.032c2.625-3.045,2.488-8.063,4.2-7.959c1.764,0.105,1.47,1.723,1.05,2.94    c1.68-1.953,8.085-6.069,9.628-1.995c1.827,4.83-9.135,11.802-6.405,11.445c2.667-0.347,6.983-3.077,8.82-5.565l5.082-45.633    c0,0-5.092,4.232-37.59,4.232c-32.413,0-37.002-4.148-37.002-4.148l4.305,41.653c2.311-6.51,7.749-19.698,16.328-19.257    c3.917,0.21,9.135,7.718,4.662,7.979c-1.89,0.105-2.079-3.759-4.305-4.325c-1.627-0.389-3.885,0.924-5.323,2.352    c-2.898,2.835-9.135,14.028-8.295,19.604c1.05,7.119,9.796-2.468,11.277-5.313c1.05-1.994,1.764-7.938,4.042-7.318    c2.289,0.631-0.21,6.752-1.848,12.181c-1.869,6.09-2.835,12.495-5.177,11.76c-2.331-0.735,1.47-8.61,1.323-9.976    c-2.185,2.027-6.227,7.141-11.382,4.62l2.667,25.852c0,0,7.14,5.628,28.602,5.628s28.854-5.544,28.854-5.544l3.329-29.956    c-2.73,2.656-11.34,7.37-11.896,2.058c-0.451-4.263,9.324-10.447,6.825-10.647h-0.021V282.68z M390.948,200.519L372.3,220.153    l-3.402,13.335c13.188,0.84,22.365,2.698,22.365,4.861c0,2.94-16.926,5.313-37.8,5.313s-37.8-2.363-37.8-5.293    c0-2.939,16.926-5.322,37.8-5.322c2.961,0,5.911,0.041,8.862,0.136l3.927-15.96l19.813-21c0.483-0.557,1.963-0.053,3.318,1.123    c1.333,1.135,2.047,2.488,1.648,3.045L391,200.435l-0.042,0.062L390.948,200.519z M364.067,241.153c0,0-3.675,0-4.284-0.566    c-0.158-0.17-0.252-0.4-0.252-0.631c0-0.398,0.273-0.631,0.63-0.766l0.315,0.523c-0.147,0.043-0.21,0.105-0.231,0.158    c0,0.293,2.205,0.494,3.885,0.473c1.68-0.021,3.728-0.168,3.738-0.451c0-0.084-0.157-0.168-0.419-0.232l0.315-0.504    c0.441,0.137,0.819,0.4,0.819,0.84c0,0.777-0.987,0.904-1.617,0.988c-0.756,0.105-2.888,0.168-2.888,0.168H364.067z"/>
	</g>
	
		</g></svg>